<svg width="18" height="18" viewBox="0 0 18 18" fill="none" xmlns="http://www.w3.org/2000/svg">
<path fill-rule="evenodd" clip-rule="evenodd" d="M9.0001 2.0251C5.14791 2.0251 2.0251 5.14791 2.0251 9.0001C2.0251 12.8523 5.14791 15.9751 9.0001 15.9751C12.8523 15.9751 15.9751 12.8523 15.9751 9.0001C15.9751 5.14791 12.8523 2.0251 9.0001 2.0251ZM0.975098 9.0001C0.975098 4.56801 4.56801 0.975098 9.0001 0.975098C13.4322 0.975098 17.0251 4.56801 17.0251 9.0001C17.0251 13.4322 13.4322 17.0251 9.0001 17.0251C4.56801 17.0251 0.975098 13.4322 0.975098 9.0001ZM6.37887 6.37887C6.58389 6.17384 6.9163 6.17384 7.12133 6.37887L9.0001 8.25764L10.8789 6.37887C11.0839 6.17384 11.4163 6.17384 11.6213 6.37887C11.8264 6.58389 11.8264 6.9163 11.6213 7.12133L9.74256 9.0001L11.6213 10.8789C11.8264 11.0839 11.8264 11.4163 11.6213 11.6213C11.4163 11.8264 11.0839 11.8264 10.8789 11.6213L9.0001 9.74256L7.12133 11.6213C6.9163 11.8264 6.58389 11.8264 6.37887 11.6213C6.17384 11.4163 6.17384 11.0839 6.37887 10.8789L8.25764 9.0001L6.37887 7.12133C6.17384 6.9163 6.17384 6.58389 6.37887 6.37887Z" fill="white"/>
</svg>
