<svg width="20" height="21" viewBox="0 0 20 21" fill="none" xmlns="http://www.w3.org/2000/svg">
<path d="M9 15.7051H11V9.70508H9V15.7051ZM10 7.70508C10.2833 7.70508 10.521 7.60908 10.713 7.41708C10.905 7.22508 11.0007 6.98774 11 6.70508C10.9993 6.42241 10.9033 6.18508 10.712 5.99308C10.5207 5.80108 10.2833 5.70508 10 5.70508C9.71667 5.70508 9.47933 5.80108 9.288 5.99308C9.09667 6.18508 9.00067 6.42241 9 6.70508C8.99933 6.98774 9.09533 7.22541 9.288 7.41808C9.48067 7.61074 9.718 7.70641 10 7.70508ZM10 20.7051C8.61667 20.7051 7.31667 20.4424 6.1 19.9171C4.88334 19.3917 3.825 18.6794 2.925 17.7801C2.025 16.8807 1.31267 15.8224 0.788001 14.6051C0.263335 13.3877 0.000667933 12.0877 1.26582e-06 10.7051C-0.000665401 9.32241 0.262001 8.02241 0.788001 6.80508C1.314 5.58775 2.02633 4.52941 2.925 3.63008C3.82367 2.73074 4.882 2.01841 6.1 1.49308C7.318 0.967745 8.618 0.705078 10 0.705078C11.382 0.705078 12.682 0.967745 13.9 1.49308C15.118 2.01841 16.1763 2.73074 17.075 3.63008C17.9737 4.52941 18.6863 5.58775 19.213 6.80508C19.7397 8.02241 20.002 9.32241 20 10.7051C19.998 12.0877 19.7353 13.3877 19.212 14.6051C18.6887 15.8224 17.9763 16.8807 17.075 17.7801C16.1737 18.6794 15.1153 19.3921 13.9 19.9181C12.6847 20.4441 11.3847 20.7064 10 20.7051Z" fill="#026085"/>
</svg>
