<svg width="8" height="11" viewBox="0 0 8 11" fill="none" xmlns="http://www.w3.org/2000/svg">
<path fill-rule="evenodd" clip-rule="evenodd" d="M1.5 3C1.5 4.3785 2.6215 5.5 4 5.5C5.3785 5.5 6.5 4.3785 6.5 3C6.5 1.6215 5.3785 0.5 4 0.5C2.6215 0.5 1.5 1.6215 1.5 3ZM2.5 3C2.5 2.173 3.173 1.5 4 1.5C4.827 1.5 5.5 2.173 5.5 3C5.5 3.827 4.827 4.5 4 4.5C3.173 4.5 2.5 3.827 2.5 3Z" fill="#141414"/>
<path d="M7 10C7 10.2765 7.2235 10.5 7.5 10.5C7.7765 10.5 8 10.2765 8 10V9C8 7.6215 6.8785 6.5 5.5 6.5H2.5C1.1215 6.5 0 7.6215 0 9V10C0 10.2765 0.224 10.5 0.5 10.5C0.776 10.5 1 10.2765 1 10V9C1 8.173 1.673 7.5 2.5 7.5H5.5C6.327 7.5 7 8.173 7 9V10Z" fill="#141414"/>
</svg>
