<svg width="18" height="16" viewBox="0 0 18 16" fill="none" xmlns="http://www.w3.org/2000/svg">
<path fill-rule="evenodd" clip-rule="evenodd" d="M7.97291 0.990209C8.28241 0.809863 8.63421 0.714844 8.99242 0.714844C9.35063 0.714844 9.70243 0.809863 10.0119 0.990209C10.3212 1.1704 10.5771 1.42933 10.7537 1.74062C10.7539 1.74088 10.754 1.74115 10.7542 1.74141L16.7521 12.2378C16.7523 12.2381 16.7525 12.2385 16.7527 12.2389C16.93 12.5463 17.0233 12.8949 17.0234 13.2497C17.0235 13.605 16.9301 13.9541 16.7526 14.2619C16.5751 14.5696 16.3198 14.8253 16.0122 15.0032C15.7047 15.1811 15.3557 15.2749 15.0005 15.2753L3.00208 15.2753C2.64596 15.278 2.2954 15.1868 1.98576 15.0108C1.67538 14.8344 1.41716 14.5791 1.23727 14.2707C1.05738 13.9623 0.962221 13.6118 0.961431 13.2548C0.960641 12.8982 1.05402 12.5478 1.2321 12.2389C1.23232 12.2385 1.23255 12.2381 1.23277 12.2377L7.23067 1.74141C7.23082 1.74115 7.23097 1.74088 7.23112 1.74062C7.40772 1.42933 7.66368 1.1704 7.97291 0.990209ZM8.99242 1.76484C8.81995 1.76484 8.65057 1.81059 8.50155 1.89743C8.35253 1.98426 8.22921 2.10907 8.14417 2.25912L8.14325 2.26074L2.14208 12.7628C2.05612 12.9117 2.01105 13.0806 2.01143 13.2525C2.01181 13.4244 2.05763 13.5931 2.14424 13.7416C2.23085 13.8901 2.35518 14.013 2.50463 14.098C2.65407 14.1829 2.82331 14.2268 2.9952 14.2253L2.99992 14.2252L14.9994 14.2253C14.9992 14.2253 14.9996 14.2253 14.9994 14.2253M14.9994 14.2253C15.1703 14.225 15.3386 14.1798 15.4865 14.0943C15.6346 14.0086 15.7576 13.8855 15.843 13.7373C15.9285 13.5891 15.9734 13.4211 15.9734 13.25C15.9733 13.079 15.9283 12.9109 15.8428 12.7628L15.8416 12.7607L9.84159 2.26074L9.84067 2.25912C9.75563 2.10907 9.63232 1.98426 9.4833 1.89743C9.33428 1.81059 9.16489 1.76484 8.99242 1.76484M8.99998 5.2251C9.28992 5.2251 9.52497 5.46015 9.52497 5.7501V8.7501C9.52497 9.04005 9.28992 9.2751 8.99998 9.2751C8.71003 9.2751 8.47498 9.04005 8.47498 8.7501V5.7501C8.47498 5.46015 8.71003 5.2251 8.99998 5.2251ZM8.47498 11.7501C8.47498 11.4601 8.71003 11.2251 8.99998 11.2251H9.00748C9.29743 11.2251 9.53248 11.4601 9.53248 11.7501C9.53248 12.04 9.29743 12.2751 9.00748 12.2751H8.99998C8.71003 12.2751 8.47498 12.04 8.47498 11.7501Z" fill="white"/>
</svg>
