<svg width="32" height="33" viewBox="0 0 32 33" fill="none" xmlns="http://www.w3.org/2000/svg">
<path opacity="0.2" d="M5.6786 22.6245C4.18768 20.1112 3.66554 17.14 4.21024 14.2689C4.75494 11.3979 6.329 8.82442 8.63685 7.03179C10.9447 5.23916 13.8276 4.35069 16.7441 4.5332C19.6607 4.71571 22.4103 5.95665 24.4767 8.02301C26.5431 10.0894 27.784 12.839 27.9666 15.7555C28.1491 18.6721 27.2606 21.555 25.468 23.8629C23.6754 26.1707 21.1019 27.7448 18.2309 28.2895C15.3598 28.8342 12.3887 28.3121 9.87532 26.8212L9.87534 26.8211L5.73077 28.0052C5.5593 28.0542 5.37784 28.0565 5.20521 28.0117C5.03257 27.967 4.87504 27.8769 4.74894 27.7508C4.62283 27.6247 4.53275 27.4672 4.48802 27.2945C4.44328 27.1219 4.44553 26.9404 4.49452 26.769L5.67869 22.6244L5.6786 22.6245Z" fill="#0378A6"/>
<path d="M5.6786 22.6245C4.18768 20.1112 3.66554 17.14 4.21024 14.2689C4.75494 11.3979 6.329 8.82442 8.63685 7.03179C10.9447 5.23916 13.8276 4.35069 16.7441 4.5332C19.6607 4.71571 22.4103 5.95665 24.4767 8.02301C26.5431 10.0894 27.784 12.839 27.9666 15.7555C28.1491 18.6721 27.2606 21.555 25.468 23.8629C23.6754 26.1707 21.1019 27.7448 18.2309 28.2895C15.3598 28.8342 12.3887 28.3121 9.87532 26.8212L9.87534 26.8211L5.73077 28.0052C5.5593 28.0542 5.37784 28.0565 5.20521 28.0117C5.03257 27.967 4.87504 27.8769 4.74894 27.7508C4.62283 27.6247 4.53275 27.4672 4.48802 27.2945C4.44328 27.1219 4.44553 26.9404 4.49452 26.769L5.67869 22.6244L5.6786 22.6245Z" stroke="#0378A6" stroke-width="2" stroke-linecap="round" stroke-linejoin="round"/>
<path d="M16 18C16.8284 18 17.5 17.3284 17.5 16.5C17.5 15.6716 16.8284 15 16 15C15.1716 15 14.5 15.6716 14.5 16.5C14.5 17.3284 15.1716 18 16 18Z" fill="#0378A6"/>
<path d="M10 18C10.8284 18 11.5 17.3284 11.5 16.5C11.5 15.6716 10.8284 15 10 15C9.17157 15 8.5 15.6716 8.5 16.5C8.5 17.3284 9.17157 18 10 18Z" fill="#0378A6"/>
<path d="M22 18C22.8284 18 23.5 17.3284 23.5 16.5C23.5 15.6716 22.8284 15 22 15C21.1716 15 20.5 15.6716 20.5 16.5C20.5 17.3284 21.1716 18 22 18Z" fill="#0378A6"/>
</svg>
