<svg width="32" height="33" viewBox="0 0 32 33" fill="none" xmlns="http://www.w3.org/2000/svg">
<path opacity="0.2" d="M11 20.5C14.5899 20.5 17.5 17.5899 17.5 14C17.5 10.4101 14.5899 7.5 11 7.5C7.41015 7.5 4.5 10.4101 4.5 14C4.5 17.5899 7.41015 20.5 11 20.5Z" fill="#C93332"/>
<path d="M11 20.5C14.5899 20.5 17.5 17.5899 17.5 14C17.5 10.4101 14.5899 7.5 11 7.5C7.41015 7.5 4.5 10.4101 4.5 14C4.5 17.5899 7.41015 20.5 11 20.5Z" stroke="#C93332" stroke-width="2" stroke-miterlimit="10"/>
<path d="M19.4263 7.74166C20.3203 7.48977 21.2579 7.43239 22.176 7.57338C23.0941 7.71437 23.9713 8.05046 24.7485 8.55901C25.5257 9.06756 26.185 9.73677 26.6818 10.5216C27.1786 11.3063 27.5015 12.1885 27.6287 13.1086C27.7559 14.0287 27.6845 14.9653 27.4192 15.8555C27.1539 16.7456 26.7009 17.5686 26.0908 18.2689C25.4807 18.9693 24.7276 19.5307 23.8822 19.9155C23.0368 20.3003 22.1188 20.4994 21.19 20.4995" stroke="#C93332" stroke-width="2" stroke-linecap="round" stroke-linejoin="round"/>
<path d="M1.99951 25.1746C3.01468 23.7306 4.36238 22.552 5.92882 21.7384C7.49527 20.9248 9.23448 20.5001 10.9996 20.5C12.7648 20.4999 14.504 20.9246 16.0705 21.738C17.637 22.5515 18.9848 23.73 20.0001 25.1739" stroke="#C93332" stroke-width="2" stroke-linecap="round" stroke-linejoin="round"/>
<path d="M21.1904 20.5C22.9557 20.4987 24.6953 20.9228 26.262 21.7364C27.8286 22.55 29.1761 23.7291 30.1905 25.1739" stroke="#C93332" stroke-width="2" stroke-linecap="round" stroke-linejoin="round"/>
</svg>
