<svg width="32" height="33" viewBox="0 0 32 33" fill="none" xmlns="http://www.w3.org/2000/svg">
<path opacity="0.2" d="M16 4.5C13.6266 4.5 11.3066 5.20379 9.33316 6.52236C7.35977 7.84094 5.8217 9.71509 4.91345 11.9078C4.0052 14.1005 3.76756 16.5133 4.23058 18.8411C4.6936 21.1689 5.83649 23.3071 7.51472 24.9853C9.19295 26.6635 11.3312 27.8064 13.6589 28.2694C15.9867 28.7324 18.3995 28.4948 20.5922 27.5866C22.7849 26.6783 24.6591 25.1402 25.9776 23.1668C27.2962 21.1935 28 18.8734 28 16.5C28 14.9241 27.6896 13.3637 27.0866 11.9078C26.4835 10.4519 25.5996 9.12901 24.4853 8.01471C23.371 6.90041 22.0481 6.01649 20.5922 5.41344C19.1363 4.81038 17.5759 4.5 16 4.5ZM14 20.5V12.5L20 16.5L14 20.5Z" fill="#763FF9"/>
<path d="M16 28.5C22.6274 28.5 28 23.1274 28 16.5C28 9.87258 22.6274 4.5 16 4.5C9.37258 4.5 4 9.87258 4 16.5C4 23.1274 9.37258 28.5 16 28.5Z" stroke="#763FF9" stroke-width="2" stroke-miterlimit="10"/>
<path d="M20 16.5L14 12.5V20.5L20 16.5Z" stroke="#763FF9" stroke-width="2" stroke-linecap="round" stroke-linejoin="round"/>
</svg>
