<svg width="32" height="33" viewBox="0 0 32 33" fill="none" xmlns="http://www.w3.org/2000/svg">
<path opacity="0.2" d="M7 6.5L25 6.5V25.5C25 26.0304 24.7893 26.5391 24.4142 26.9142C24.0391 27.2893 23.5304 27.5 23 27.5H9C8.46957 27.5 7.96086 27.2893 7.58579 26.9142C7.21071 26.5391 7 26.0304 7 25.5L7 6.5Z" fill="#1F1F1F" stroke="#1F1F1F" stroke-width="2"/>
<path d="M12 16.5H20" stroke="#1F1F1F" stroke-width="2" stroke-linecap="round" stroke-linejoin="round"/>
<path d="M12 20.5H20" stroke="#1F1F1F" stroke-width="2" stroke-linecap="round" stroke-linejoin="round"/>
<path d="M7 5.5H25C25.2652 5.5 25.5196 5.60536 25.7071 5.79289C25.8946 5.98043 26 6.23478 26 6.5V25.5C26 26.2956 25.6839 27.0587 25.1213 27.6213C24.5587 28.1839 23.7956 28.5 23 28.5H9C8.20435 28.5 7.44129 28.1839 6.87868 27.6213C6.31607 27.0587 6 26.2956 6 25.5V6.5C6 6.23478 6.10536 5.98043 6.29289 5.79289C6.48043 5.60536 6.73478 5.5 7 5.5Z" stroke="#1F1F1F" stroke-width="2" stroke-linecap="round" stroke-linejoin="round"/>
<path d="M10 3.5V7.5" stroke="#1F1F1F" stroke-width="1.5" stroke-linecap="round" stroke-linejoin="round"/>
<path d="M16 3.5V7.5" stroke="#1F1F1F" stroke-width="1.5" stroke-linecap="round" stroke-linejoin="round"/>
<path d="M22 3.5V7.5" stroke="#1F1F1F" stroke-width="1.5" stroke-linecap="round" stroke-linejoin="round"/>
</svg>
