<svg width="18" height="18" viewBox="0 0 18 18" fill="none" xmlns="http://www.w3.org/2000/svg">
<path fill-rule="evenodd" clip-rule="evenodd" d="M13.125 17.25C14.118 17.25 15.0067 16.5833 15.285 15.6285L17.0333 9.6285C17.0925 9.423 17.1225 9.2115 17.1225 9C17.1225 7.7595 16.113 6.75 14.8725 6.75H11.4532L11.979 4.58775C12.0353 4.359 12.0653 4.12275 12.0682 3.88575C12.0787 3.0585 11.766 2.277 11.1877 1.6845C10.6102 1.092 9.83625 0.7605 9.009 0.75C8.72175 0.765 8.45775 0.9075 8.33025 1.164L5.74125 6.33375C5.61375 6.59025 5.3565 6.75 5.07 6.75H3C1.7595 6.75 0.75 7.7595 0.75 9V15C0.75 16.2405 1.7595 17.25 3 17.25H13.125ZM6 15.75H13.125C13.4557 15.75 13.752 15.528 13.845 15.2092L15.5925 9.21C15.612 9.14175 15.6225 9.06975 15.6225 9C15.6225 8.58675 15.2865 8.25 14.8725 8.25H10.5C10.2697 8.25 10.0522 8.14425 9.9105 7.9635C9.76875 7.78275 9.717 7.5465 9.771 7.323L10.521 4.233L10.5218 4.23C10.551 4.11225 10.5667 3.99 10.5682 3.86775C10.5735 3.441 10.4123 3.03825 10.1153 2.73225C9.9225 2.535 9.68775 2.39325 9.4305 2.31675L7.08375 7.00425C6.84778 7.47805 6.46279 7.84181 6 8.05071V15.75ZM4.5 8.25V15.75H3C2.58675 15.75 2.25 15.414 2.25 15V9C2.25 8.58675 2.58675 8.25 3 8.25H4.5Z" fill="#141414"/>
</svg>
