<svg width="10" height="11" viewBox="0 0 10 11" fill="none" xmlns="http://www.w3.org/2000/svg">
<path d="M3.5 10.5H1.5C0.673 10.5 0 9.827 0 9V2C0 1.173 0.673 0.5 1.5 0.5H3.5C3.776 0.5 4 0.724 4 1C4 1.276 3.776 1.5 3.5 1.5H1.5C1.2245 1.5 1 1.7245 1 2V9C1 9.276 1.2245 9.5 1.5 9.5H3.5C3.776 9.5 4 9.7235 4 10C4 10.2765 3.776 10.5 3.5 10.5Z" fill="#141414"/>
<path d="M7 8.5C6.872 8.5 6.744 8.451 6.6465 8.3535C6.451 8.158 6.451 7.842 6.6465 7.6465L8.29301 6H3.5C3.224 6 3 5.776 3 5.5C3 5.224 3.224 5 3.5 5H8.293L6.6465 3.3535C6.451 3.158 6.451 2.842 6.6465 2.6465C6.842 2.451 7.158 2.451 7.3535 2.6465L9.84531 5.13831C9.88471 5.17594 9.91796 5.21995 9.94342 5.26867C10.02 5.41503 10.019 5.5911 9.94056 5.73672C9.91552 5.78325 9.88333 5.82535 9.84544 5.86156L7.3535 8.3535C7.256 8.451 7.128 8.5 7 8.5Z" fill="#141414"/>
</svg>
