<svg version="1.1" id="Layer_1" xmlns="http://www.w3.org/2000/svg" xmlns:xlink="http://www.w3.org/1999/xlink" x="0px" y="0px" viewBox="0 0 157.9442 239.5764" enable-background="new 0 0 157.9442 239.5764" xml:space="preserve">
<g>
	<path d="M11.5606,123.8221c-0.1254,0.7064-0.2025,1.4297-0.2025,2.1722v101.2188c0,6.8301,5.5371,12.3633,12.3633,12.3633
		c6.8281,0,12.3652-5.5332,12.3652-12.3633v-91.6886l4.6348,0.9384v90.7502c0,6.8301,5.5371,12.3633,12.3633,12.3633
		c6.8281,0,12.3652-5.5332,12.3652-12.3633v-97.4294l9.5809-47.3247c1.3326,5.1428,2.0583,12.7805,1.1222,23.8769
		c-0.2778,3.293,1.4976,6.418,4.4688,7.8652c1.1152,0.543,2.3125,0.8076,3.501,0.8076c1.979,0,3.9341-0.7334,5.4468-2.1387
		l14.3361-13.3175l-1.222,2.3901l3.1367,1.6038l5.6217-10.9948l9.1774-8.5253c3.1064-2.8857,3.3948-7.6603,0.7557-10.9015
		l36.5691-71.521L154.8074,0l-36.2588,70.914c-2.8612-1.3301-6.3635-0.8904-8.819,1.3896l-17.52,16.2754
		c-0.9585-10.4824-3.8149-18.5659-8.5469-24.1411c-4.096-4.8254-8.5237-6.4694-10.9666-7.0282
		c-0.1513-0.0402-0.3003-0.085-0.4558-0.1165l-37.8666-7.6661c-1.6093-0.3258-3.2007-0.122-4.6005,0.485
		c-0.1942,0.0619-0.3885,0.1238-0.5806,0.2015l-0.2324,0.0938c-4.8024,1.9325-10.0506,5.1369-15.3872,12.6583
		C9.1635,69.2805,4.6937,78.4393,0.3646,92.2932c-0.9023,2.8857-0.0996,6.0342,2.0752,8.1367
		c1.5166,1.4668,3.5195,2.249,5.5615,2.249c0.8848,0,1.7773-0.1465,2.6406-0.4482l43.4307-15.1924
		c4.1699-1.459,6.3682-6.0225,4.9102-10.1934c-1.459-4.1709-6.0215-6.3701-10.1934-4.9102l-27.3135,9.5547
		c2.5849-5.6083,4.9839-9.2093,7.0638-11.5721l2.1944,1.0046c-1.3653,1.4507-2.9178,3.5173-4.6127,6.506l21.9082-7.6641
		c1.1006-0.3848,2.2451-0.5801,3.4023-0.5801c4.3711,0,8.2773,2.7734,9.7217,6.9014c1.874,5.3613-0.9619,11.249-6.3213,13.124
		L15.704,102.8965l-4.0095,19.8046C11.6185,123.0767,11.5808,123.4504,11.5606,123.8221z" id="id_101" style="fill: rgb(112, 197, 214);"></path>
	<ellipse transform="matrix(0.88 -0.4749 0.4749 0.88 -5.1974 31.0687)" cx="58.9014" cy="25.8225" rx="22.5" ry="22.5" id="id_102" style="fill: rgb(112, 197, 214); stroke: rgb(255, 255, 255);"></ellipse>
</g>
</svg>