<svg width="112" height="112" viewBox="0 0 112 112" fill="none" xmlns="http://www.w3.org/2000/svg">
<path d="M83.331 52.9023H22.2251L6.94873 83.4552H98.6074L83.331 52.9023Z" stroke="#763FF9" stroke-width="2.1875" stroke-miterlimit="10" stroke-linecap="round" stroke-linejoin="round"/>
<path d="M98.6074 83.4609H6.94873V108.285H98.6074V83.4609Z" stroke="#763FF9" stroke-width="2.1875" stroke-miterlimit="10" stroke-linecap="round" stroke-linejoin="round"/>
<path d="M76.2577 95.8696C76.2577 98.2717 74.3117 100.218 71.9096 100.218C70.4875 100.218 69.2253 99.5356 68.4313 98.4784C67.8866 97.7519 67.5615 96.8476 67.5615 95.8696C67.5615 94.8918 67.8864 93.9874 68.4313 93.2605C69.2255 92.2035 70.4875 91.5215 71.9096 91.5215C74.3119 91.5215 76.2577 93.4675 76.2577 95.8696ZM37.9948 95.8696C37.9948 96.8476 37.6704 97.7517 37.1253 98.4784C36.333 99.5356 35.0692 100.218 33.6469 100.218C31.2466 100.218 29.2988 98.2717 29.2988 95.8696C29.2988 93.4677 31.2466 91.5215 33.6469 91.5215C35.0692 91.5215 36.333 92.2035 37.1253 93.2605C37.6704 93.9874 37.9948 94.8918 37.9948 95.8696Z" stroke="#763FF9" stroke-width="2.1875" stroke-miterlimit="10" stroke-linecap="round" stroke-linejoin="round"/>
<path d="M67.5609 95.8707C67.5609 96.8488 67.8858 97.7529 68.4307 98.4796H37.1245C37.6694 97.7531 37.994 96.8488 37.994 95.8707C37.994 94.8929 37.6696 93.9886 37.1245 93.2617H68.4305C67.8858 93.9886 67.5609 94.8929 67.5609 95.8707Z" stroke="#763FF9" stroke-width="2.1875" stroke-miterlimit="10" stroke-linecap="round" stroke-linejoin="round"/>
<path d="M56.2467 52.9023H22.2256V71.7557H83.1081V52.9023H78.0836" stroke="#763FF9" stroke-width="2.1875" stroke-miterlimit="10" stroke-linecap="round" stroke-linejoin="round"/>
<path d="M82.9246 71.7598H52.575H22.2256L18.3701 83.4592H52.575H86.7798L82.9246 71.7598Z" stroke="#763FF9" stroke-width="2.1875" stroke-miterlimit="10" stroke-linecap="round" stroke-linejoin="round"/>
<path d="M18.3387 46.6408L15.8906 41.2656" stroke="#763FF9" stroke-width="2.1875" stroke-miterlimit="10" stroke-linecap="round" stroke-linejoin="round"/>
<path d="M21.9229 45.0072L23.3865 41.0957" stroke="#763FF9" stroke-width="2.1875" stroke-miterlimit="10" stroke-linecap="round" stroke-linejoin="round"/>
<path d="M14.7577 48.2762L10.8462 46.8125" stroke="#763FF9" stroke-width="2.1875" stroke-miterlimit="10" stroke-linecap="round" stroke-linejoin="round"/>
<path d="M35.6933 67.116C35.6758 67.116 35.6581 67.1155 35.6403 67.1147C34.8312 67.0762 34.0426 66.9746 33.2964 66.8134C32.706 66.6859 32.3307 66.1038 32.4584 65.5134C32.5862 64.923 33.168 64.5478 33.7584 64.6756C34.3873 64.8114 35.0554 64.897 35.7443 64.9298C36.3476 64.9584 36.8135 65.471 36.7846 66.0743C36.7571 66.6599 36.2734 67.116 35.6933 67.116ZM40.0407 66.7609C39.5282 66.7609 39.0706 66.3989 38.9686 65.877C38.8525 65.2842 39.239 64.7095 39.8318 64.5936C40.4896 64.4649 41.1738 64.2989 41.8651 64.1005C42.4459 63.9332 43.0516 64.2692 43.2183 64.8499C43.385 65.4305 43.0494 66.0364 42.4688 66.2031C41.717 66.4188 40.9713 66.5997 40.252 66.7406C40.1812 66.7542 40.1105 66.7609 40.0407 66.7609ZM29.5479 65.1015C29.3268 65.1015 29.1034 65.0346 28.9103 64.8956C28.2538 64.4236 27.6481 63.8772 27.1102 63.2717C26.709 62.8202 26.7499 62.1287 27.2014 61.7273C27.6529 61.3261 28.3444 61.3672 28.7456 61.8185C29.1767 62.3039 29.6617 62.7416 30.1876 63.1198C30.678 63.4725 30.7896 64.1558 30.4369 64.6465C30.2232 64.9433 29.8881 65.1015 29.5479 65.1015ZM26.1195 59.7559C25.575 59.7559 25.1034 59.3497 25.0353 58.7954C24.9404 58.0234 24.8726 57.265 24.8341 56.5416C24.8019 55.9383 25.2648 55.4233 25.8681 55.3912C26.4671 55.3564 26.9864 55.8219 27.0185 56.425C27.0546 57.0983 27.1178 57.806 27.2064 58.5283C27.2802 59.1279 26.854 59.6737 26.2544 59.7474C26.2092 59.7531 26.1639 59.7559 26.1195 59.7559ZM26.0939 53.2148C26.0407 53.2148 25.9869 53.2109 25.9327 53.203C25.335 53.1149 24.9223 52.5588 25.0104 51.9612C25.129 51.1586 25.2987 50.3888 25.5151 49.6731C25.6896 49.0949 26.3004 48.7672 26.8783 48.9424C27.4567 49.1172 27.7837 49.7275 27.6089 50.3057C27.4234 50.9193 27.2773 51.5836 27.1745 52.2808C27.0942 52.8242 26.6272 53.2148 26.0939 53.2148ZM68.191 50.8569C68.1602 50.8569 68.1293 50.8556 68.098 50.853C67.3937 50.7937 66.6329 50.6948 65.8366 50.559C65.2412 50.4573 64.8408 49.8923 64.9426 49.2968C65.0443 48.7014 65.6078 48.3002 66.205 48.4028C66.94 48.5283 67.6387 48.6193 68.2813 48.6734C68.8833 48.7239 69.3302 49.2528 69.2795 49.8548C69.2316 50.4253 68.7536 50.8569 68.191 50.8569ZM72.5352 50.5968C72.0484 50.5968 71.6046 50.2696 71.4771 49.7765C71.3259 49.1918 71.6774 48.5951 72.2622 48.4439C72.8985 48.2794 73.4729 48.0401 73.9697 47.7328C74.4829 47.4149 75.1573 47.5733 75.4754 48.0869C75.7934 48.6005 75.6348 49.2747 75.1212 49.5926C74.4374 50.0161 73.6598 50.3422 72.8101 50.5618C72.718 50.5855 72.6259 50.5968 72.5352 50.5968ZM61.7549 49.6068C61.6602 49.6068 61.5642 49.5943 61.4682 49.5685C60.8014 49.3878 60.1047 49.189 59.3375 48.9602C58.7587 48.7876 58.4295 48.1783 58.6019 47.5995C58.7745 47.0207 59.3828 46.6911 59.9627 46.8639C60.7119 47.0872 61.3916 47.2813 62.0404 47.4569C62.6234 47.6148 62.9679 48.2155 62.8102 48.7987C62.6779 49.2859 62.2366 49.6068 61.7549 49.6068ZM55.4755 47.6982C55.3642 47.6982 55.2511 47.6811 55.1395 47.645L53.0574 46.9722C52.4826 46.7867 52.1667 46.1702 52.3522 45.5956C52.5377 45.0207 53.1541 44.7046 53.7288 44.8903L55.8111 45.5632C56.3857 45.7487 56.7016 46.3651 56.5161 46.94C56.3669 47.4031 55.9375 47.6982 55.4755 47.6982ZM28.5953 47.2522C28.3439 47.2522 28.0915 47.166 27.8854 46.9901C27.4261 46.5977 27.3718 45.9073 27.7643 45.4481C28.2917 44.8308 28.895 44.2748 29.5578 43.7953C30.0469 43.4413 30.7309 43.5507 31.0849 44.0403C31.439 44.5296 31.3292 45.2134 30.8399 45.5674C30.3175 45.9454 29.8422 46.3831 29.4274 46.8687C29.2113 47.122 28.9042 47.2522 28.5953 47.2522ZM77.2532 46.4198C77.1151 46.4198 76.9749 46.3936 76.8393 46.338C76.5368 46.2142 76.3198 45.9707 76.2202 45.6846C75.9575 45.5936 75.6963 45.4914 75.4375 45.3788C74.8839 45.1373 74.6308 44.4929 74.8721 43.939C75.1133 43.3853 75.7582 43.1318 76.3117 43.3735C76.442 43.4304 76.5726 43.4835 76.7039 43.5334C76.7605 43.3409 76.8135 43.151 76.8627 42.9649C77.0171 42.3808 77.615 42.0319 78.1997 42.187C78.7838 42.3414 79.132 42.9399 78.9776 43.524C78.9128 43.7686 78.8426 44.0184 78.7669 44.2715C78.99 44.5139 79.1016 44.8538 79.0399 45.2034C78.9498 45.7143 78.5182 46.0794 78.0212 46.1057C77.8169 46.3063 77.5402 46.4198 77.2532 46.4198ZM49.2153 45.7159C49.1114 45.7159 49.006 45.701 48.9014 45.6697C48.1596 45.4479 47.4795 45.2521 46.8218 45.0712C46.2392 44.9111 45.8971 44.3091 46.0572 43.7266C46.2174 43.1443 46.8191 42.8021 47.4019 42.962C48.0752 43.1473 48.7706 43.3475 49.5281 43.5739C50.1069 43.7471 50.4357 44.3566 50.2627 44.9352C50.1209 45.4094 49.6861 45.7159 49.2153 45.7159ZM82.2247 45.5579C81.8279 45.5579 81.4451 45.3412 81.251 44.9638C80.975 44.4266 81.1867 43.7673 81.724 43.4912C82.2439 43.2241 82.7175 42.8568 83.1319 42.3994C83.5374 41.9518 84.2289 41.9171 84.6769 42.3229C85.1247 42.7284 85.1588 43.4201 84.7534 43.8679C84.1617 44.5211 83.479 45.0489 82.7241 45.437C82.5638 45.519 82.3929 45.5579 82.2247 45.5579ZM42.8652 44.054C42.7968 44.054 42.7274 44.0475 42.6576 44.0341C41.9666 43.9014 41.2681 43.7961 40.5817 43.7213C39.9812 43.6559 39.5474 43.116 39.6128 42.5156C39.6785 41.9151 40.2186 41.4822 40.8186 41.5467C41.5639 41.6281 42.3214 41.7421 43.0702 41.886C43.6634 42 44.0519 42.5733 43.938 43.1666C43.8376 43.69 43.3793 44.054 42.8652 44.054ZM34.1714 44.0162C33.6762 44.0162 33.2275 43.6778 33.1083 43.1749C32.9688 42.5871 33.3321 41.9976 33.9199 41.858C34.6483 41.685 35.4251 41.5592 36.229 41.4839C36.8275 41.426 37.3637 41.8694 37.4199 42.4709C37.4763 43.0723 37.0344 43.6056 36.4329 43.6618C35.7303 43.7277 35.0545 43.8368 34.425 43.9862C34.3401 44.0068 34.255 44.0162 34.1714 44.0162ZM72.3912 42.889C72.0727 42.889 71.7571 42.7505 71.5407 42.4839C70.9613 41.7685 70.5504 41.0213 70.3199 40.2627L70.3002 40.1962C70.13 39.6167 70.4616 39.0088 71.0413 38.8384C71.621 38.6682 72.2289 39.0003 72.3989 39.5795L72.4131 39.627C72.561 40.1139 72.8392 40.6116 73.2402 41.1066C73.6204 41.576 73.5482 42.2647 73.079 42.6451C72.8764 42.8091 72.6329 42.889 72.3912 42.889ZM85.8986 40.365C85.8061 40.365 85.7118 40.3532 85.6182 40.3283C85.0341 40.1736 84.6861 39.5751 84.8405 38.9911C85.003 38.3768 85.1306 37.7035 85.2194 36.9897C85.2942 36.3904 85.843 35.966 86.4398 36.0395C87.0394 36.1141 87.4649 36.6605 87.3903 37.2601C87.2892 38.0712 87.1429 38.8419 86.9554 39.5511C86.8254 40.0409 86.3829 40.365 85.8986 40.365ZM78.4561 40.015C77.884 40.015 77.403 39.5703 77.3658 38.9915C77.3223 38.3149 77.1895 37.7348 76.9712 37.2673C76.7159 36.72 76.9524 36.069 77.4999 35.8137C78.047 35.5585 78.6982 35.7949 78.9537 36.3424C79.2873 37.0578 79.4877 37.9019 79.5487 38.8513C79.5877 39.4542 79.1303 39.9741 78.5276 40.0131C78.5035 40.0144 78.4797 40.015 78.4561 40.015ZM72.4453 36.9941C72.144 36.9941 71.8446 36.8705 71.6284 36.6281C71.2264 36.1771 71.2662 35.4858 71.717 35.0838C72.419 34.4581 73.2708 34.0373 74.1804 33.8666C74.7747 33.7551 75.3454 34.1462 75.457 34.7399C75.5686 35.3336 75.1777 35.9052 74.5838 36.0165C74.0728 36.1123 73.5716 36.361 73.1728 36.7167C72.9641 36.9027 72.704 36.9941 72.4453 36.9941ZM86.5181 33.9749C86.0404 33.9749 85.7678 33.7559 85.6031 33.4657C85.4521 33.2878 85.3565 33.0601 85.3449 32.809C85.3393 32.6885 85.3329 32.5668 85.3257 32.4439C85.325 32.434 85.3244 32.4242 85.3239 32.4144C85.3143 32.2435 85.3108 32.1311 85.3108 32.063C85.3108 31.3077 85.8778 30.9004 86.4111 30.9004C87.3946 30.9004 87.5156 31.8673 87.5611 32.231C87.5814 32.3934 87.6154 32.6898 87.6154 32.853C87.6156 33.5554 87.0578 33.9749 86.5181 33.9749Z" fill="#763FF9"/>
<path d="M90.6689 10.8301L90.2796 13.5535L89.5949 18.3463L88.7002 24.6113C88.7002 24.6113 88.7002 27.5645 85.7471 27.5645C82.7939 27.5645 82.7939 24.6113 82.7939 24.6113L81.8993 18.3463L81.2146 13.5535L80.8252 10.8301C80.8252 10.8301 80.8252 5.9082 85.7471 5.9082C90.6689 5.9082 90.6689 10.8301 90.6689 10.8301Z" stroke="#763FF9" stroke-width="2.1875" stroke-miterlimit="10" stroke-linecap="round" stroke-linejoin="round"/>
<path d="M81.8985 18.3467C80.4067 19.5323 77.1845 21.6586 73.2514 21.6586C67.799 21.6586 66.4355 16.2073 66.4355 16.2073C66.4355 16.2073 67.799 10.7539 73.2514 10.7539C76.6617 10.7539 79.5382 12.353 81.2139 13.5539L81.8985 18.3467ZM105.055 16.2073C105.055 16.2073 103.693 21.6586 98.2416 21.6586C94.3085 21.6586 91.0863 19.5323 89.5944 18.3467L90.2791 13.5539C91.9547 12.353 94.8315 10.7539 98.2416 10.7539C103.693 10.7539 105.055 16.2073 105.055 16.2073Z" stroke="#763FF9" stroke-width="2.1875" stroke-miterlimit="10" stroke-linecap="round" stroke-linejoin="round"/>
<path d="M87.7158 6.23239L88.7002 3.93945" stroke="#763FF9" stroke-width="2.1875" stroke-miterlimit="10" stroke-linecap="round" stroke-linejoin="round"/>
<path d="M83.7783 6.23239L82.7939 3.93945" stroke="#763FF9" stroke-width="2.1875" stroke-miterlimit="10" stroke-linecap="round" stroke-linejoin="round"/>
<path d="M88.9203 23.0645H82.6533" stroke="#763FF9" stroke-width="2.1875" stroke-miterlimit="10" stroke-linecap="round" stroke-linejoin="round"/>
<path d="M89.4642 19.2695H82.1226" stroke="#763FF9" stroke-width="2.1875" stroke-miterlimit="10" stroke-linecap="round" stroke-linejoin="round"/>
</svg>
