<svg width="17" height="20" viewBox="0 0 17 20" fill="none" xmlns="http://www.w3.org/2000/svg">
<path fill-rule="evenodd" clip-rule="evenodd" d="M3.5 5C3.5 7.757 5.743 10 8.5 10C11.257 10 13.5 7.757 13.5 5C13.5 2.243 11.257 0 8.5 0C5.743 0 3.5 2.243 3.5 5ZM5.5 5C5.5 3.346 6.846 2 8.5 2C10.154 2 11.5 3.346 11.5 5C11.5 6.654 10.154 8 8.5 8C6.846 8 5.5 6.654 5.5 5Z" fill="white"/>
<path d="M14.5 19C14.5 19.553 14.947 20 15.5 20C16.053 20 16.5 19.553 16.5 19V17C16.5 14.243 14.257 12 11.5 12H5.5C2.743 12 0.5 14.243 0.5 17V19C0.5 19.553 0.948 20 1.5 20C2.052 20 2.5 19.553 2.5 19V17C2.5 15.346 3.846 14 5.5 14H11.5C13.154 14 14.5 15.346 14.5 17V19Z" fill="white"/>
</svg>
