<svg width="12" height="11" viewBox="0 0 12 11" fill="none" xmlns="http://www.w3.org/2000/svg">
<path d="M9.09002 10.5091C9.01052 10.5091 8.93052 10.4901 8.85702 10.4516L6.00002 8.94861L3.14252 10.4511C2.97452 10.5406 2.77002 10.5251 2.61602 10.4131C2.46202 10.3011 2.38502 10.1116 2.41702 9.92411L2.96252 6.74361L0.651024 4.49211C0.515024 4.35961 0.465524 4.16111 0.524524 3.97961C0.583024 3.79911 0.739524 3.66661 0.927524 3.63961L4.12302 3.17211L5.55152 0.277609C5.72002 -0.0638906 6.27952 -0.0638906 6.44802 0.277609L7.87652 3.17211L11.072 3.63961C11.2605 3.66711 11.4165 3.79911 11.4755 3.98011C11.534 4.16111 11.4855 4.35961 11.3485 4.49261L9.03702 6.74411L9.58252 9.92461C9.61452 10.1121 9.53752 10.3016 9.38402 10.4136C9.29652 10.4766 9.19352 10.5091 9.09002 10.5091ZM2.07402 4.48211L3.84852 6.21061C3.96652 6.32561 4.02052 6.49161 3.99252 6.65361L3.57352 9.09511L5.76702 7.94161C5.91252 7.86461 6.08702 7.86461 6.23252 7.94161L8.42552 9.09511L8.00702 6.65361C7.97902 6.49161 8.03302 6.32611 8.15102 6.21061L9.92552 4.48211L7.47252 4.12361C7.31002 4.10011 7.16952 3.99761 7.09652 3.85011L6.00002 1.62861L4.90352 3.85011C4.83052 3.99761 4.69052 4.10011 4.52752 4.12361L2.07402 4.48211Z" fill="#141414"/>
</svg>
