<svg width="14" height="18" viewBox="0 0 14 18" fill="none" xmlns="http://www.w3.org/2000/svg">
<path fill-rule="evenodd" clip-rule="evenodd" d="M6.7273 11.9493C7.71384 12.343 8.7337 12.75 10 12.75C12.4375 12.75 13.3683 11.9422 13.5303 11.7802C13.6713 11.64 13.75 11.4495 13.75 11.25V2.25C13.75 1.95675 13.5685 1.6995 13.3015 1.57725C13.033 1.45575 12.7105 1.50975 12.4885 1.70175C12.4825 1.707 11.833 2.25 10 2.25C9.019 2.25 8.17375 1.91175 7.279 1.55325L7.2727 1.55074C6.28616 1.15702 5.2663 0.75 4 0.75C1.5625 0.75 0.63175 1.55775 0.46975 1.71975C0.32875 1.86 0.25 2.05125 0.25 2.25V16.5C0.25 16.9147 0.586 17.25 1 17.25C1.414 17.25 1.75 16.9147 1.75 16.5V11.6547C2.07908 11.4922 2.77523 11.25 4 11.25C4.981 11.25 5.82625 11.5883 6.721 11.9467L6.7273 11.9493ZM7.2727 10.5507C6.28616 10.157 5.2663 9.75 4 9.75C3.02425 9.75 2.29 9.87975 1.75 10.0455V2.655C2.07925 2.49225 2.77525 2.25 4 2.25C4.981 2.25 5.82625 2.58825 6.721 2.94675L6.7273 2.94926C7.71384 3.34298 8.7337 3.75 10 3.75C10.9757 3.75 11.7092 3.621 12.25 3.4545V10.845C11.9215 11.0077 11.2247 11.25 10 11.25C9.019 11.25 8.17375 10.9117 7.279 10.5533L7.2727 10.5507Z" fill="#141414"/>
</svg>
