<svg width="12" height="11" viewBox="0 0 12 11" fill="none" xmlns="http://www.w3.org/2000/svg">
<path fill-rule="evenodd" clip-rule="evenodd" d="M2 3C2 4.3785 3.1215 5.5 4.5 5.5C5.8785 5.5 7 4.3785 7 3C7 1.6215 5.8785 0.5 4.5 0.5C3.1215 0.5 2 1.6215 2 3ZM3 3C3 2.173 3.673 1.5 4.5 1.5C5.327 1.5 6 2.173 6 3C6 3.827 5.327 4.5 4.5 4.5C3.673 4.5 3 3.827 3 3Z" fill="#141414"/>
<path d="M7.5 10C7.5 10.2765 7.7235 10.5 8 10.5C8.2765 10.5 8.5 10.2765 8.5 10V9C8.5 7.6215 7.3785 6.5 6 6.5H3C1.6215 6.5 0.5 7.6215 0.5 9V10C0.5 10.2765 0.724 10.5 1 10.5C1.276 10.5 1.5 10.2765 1.5 10V9C1.5 8.173 2.173 7.5 3 7.5H6C6.827 7.5 7.5 8.173 7.5 9V10Z" fill="#141414"/>
<path d="M11 10.5C10.7235 10.5 10.5 10.2765 10.5 10V9.00001C10.4995 8.31701 10.037 7.72001 9.375 7.54901C9.1075 7.48001 8.947 7.20701 9.016 6.94001C9.085 6.67251 9.358 6.51 9.625 6.58101C10.7285 6.86601 11.4995 7.86101 11.5 8.99951V10C11.5 10.2765 11.2765 10.5 11 10.5Z" fill="#141414"/>
<path d="M7.51549 5.06398C7.57299 5.28998 7.77699 5.43998 7.99949 5.43998C8.04049 5.43998 8.08249 5.43498 8.12399 5.42448C9.00899 5.19748 9.69949 4.50748 9.92599 3.62248C10.2675 2.28698 9.45949 0.922479 8.12399 0.580479C7.85749 0.511479 7.58399 0.673479 7.51549 0.940979C7.44749 1.20848 7.60849 1.48098 7.87599 1.54948C8.67699 1.75448 9.16199 2.57298 8.95699 3.37448C8.82149 3.90548 8.40699 4.31948 7.87599 4.45548C7.60849 4.52398 7.44699 4.79648 7.51549 5.06398Z" fill="#141414"/>
</svg>
