<svg width="13" height="16" viewBox="0 0 13 16" fill="none" xmlns="http://www.w3.org/2000/svg">
<path d="M11.3721 15.4746C11.2438 15.4746 11.1148 15.4416 11.0001 15.3756L6.12207 12.5879L1.24407 15.3756C1.01157 15.5084 0.72657 15.5076 0.49557 15.3734C0.26457 15.2391 0.12207 14.9916 0.12207 14.7246V2.72461C0.12207 1.48411 1.13157 0.474609 2.37207 0.474609H9.87207C11.1126 0.474609 12.1221 1.48411 12.1221 2.72461V14.7246C12.1221 14.9916 11.9803 15.2391 11.7486 15.3734C11.6323 15.4409 11.5026 15.4746 11.3721 15.4746ZM6.12207 10.9746C6.25032 10.9746 6.37857 11.0076 6.49407 11.0736L10.6221 13.4316V2.72461C10.6221 2.31136 10.2861 1.97461 9.87207 1.97461H2.37207C1.95882 1.97461 1.62207 2.31136 1.62207 2.72461V13.4316L5.75007 11.0729C5.86557 11.0076 5.99382 10.9746 6.12207 10.9746Z" fill="#595959"/>
</svg>
