<svg width="18" height="18" viewBox="0 0 18 18" fill="none" xmlns="http://www.w3.org/2000/svg">
<path fill-rule="evenodd" clip-rule="evenodd" d="M10.6125 4.56539C10.5392 4.30605 10.5 4.03253 10.5 3.75C10.5 2.0955 11.8455 0.75 13.5 0.75C15.1545 0.75 16.5 2.0955 16.5 3.75C16.5 5.4045 15.1545 6.75 13.5 6.75C12.6678 6.75 11.9138 6.40958 11.3698 5.86065L7.38747 8.18466C7.46077 8.44399 7.5 8.71749 7.5 9C7.5 9.28248 7.46078 9.55595 7.3875 9.81525L11.3722 12.1369C11.916 11.5894 12.669 11.25 13.5 11.25C15.1545 11.25 16.5 12.5955 16.5 14.25C16.5 15.9045 15.1545 17.25 13.5 17.25C11.8455 17.25 10.5 15.9045 10.5 14.25C10.5 13.9663 10.5396 13.6916 10.6135 13.4313L6.63053 11.1103C6.08656 11.6594 5.33238 12 4.5 12C2.8455 12 1.5 10.6545 1.5 9C1.5 7.3455 2.8455 6 4.5 6C5.33223 6 6.08627 6.34043 6.63022 6.88939L10.6125 4.56539ZM12.218 4.52826C12.2138 4.5203 12.2093 4.51239 12.2048 4.50453C12.1998 4.49604 12.1948 4.48769 12.1896 4.47947C12.0688 4.26343 12 4.01462 12 3.75C12 2.92275 12.6727 2.25 13.5 2.25C14.3273 2.25 15 2.92275 15 3.75C15 4.57725 14.3273 5.25 13.5 5.25C12.9575 5.25 12.4815 4.96071 12.218 4.52826ZM5.77653 8.21288C5.51199 7.78535 5.03876 7.5 4.5 7.5C3.67275 7.5 3 8.17275 3 9C3 9.82725 3.67275 10.5 4.5 10.5C5.03842 10.5 5.5114 10.215 5.77603 9.78792C5.78187 9.77668 5.78803 9.76552 5.79449 9.75446C5.80109 9.74314 5.80794 9.73206 5.81502 9.72122C5.9329 9.50711 6 9.26126 6 9C6 8.73863 5.93285 8.49269 5.81488 8.27851C5.80785 8.26775 5.80105 8.25676 5.79451 8.24553C5.78821 8.23473 5.78222 8.22385 5.77653 8.21288ZM12.213 13.4955C12.1975 13.5221 12.1806 13.5474 12.1625 13.5713C12.0586 13.7752 12 14.0059 12 14.25C12 15.0773 12.6727 15.75 13.5 15.75C14.3273 15.75 15 15.0773 15 14.25C15 13.4227 14.3273 12.75 13.5 12.75C12.9804 12.75 12.5217 13.0154 12.2525 13.4178C12.2409 13.4441 12.2278 13.4701 12.213 13.4955Z" fill="#141414"/>
</svg>
