<svg width="22" height="18" viewBox="0 0 22 18" fill="none" xmlns="http://www.w3.org/2000/svg">
<path d="M1.82494 5.82441L4.99774 2.65161V16.7996C4.99774 16.9587 5.06095 17.1114 5.17347 17.2239C5.286 17.3364 5.43861 17.3996 5.59774 17.3996C5.75687 17.3996 5.90948 17.3364 6.022 17.2239C6.13452 17.1114 6.19774 16.9587 6.19774 16.7996V2.64561L9.37654 5.82561C9.4892 5.93811 9.64194 6.00126 9.80116 6.00114C9.96038 6.00103 10.113 5.93767 10.2255 5.82501C10.338 5.71235 10.4012 5.5596 10.4011 5.40039C10.401 5.24117 10.3376 5.08851 10.2249 4.97601L6.03694 0.788009L6.02494 0.776009C5.96921 0.720111 5.90301 0.675756 5.83011 0.645486C5.75722 0.615216 5.67907 0.599626 5.60014 0.599609H5.59774C5.51009 0.599671 5.42352 0.618934 5.34412 0.656044C5.26472 0.693154 5.19441 0.74721 5.13814 0.814409L0.975338 4.97601C0.919632 5.0318 0.875458 5.09801 0.84534 5.17086C0.815222 5.24372 0.799749 5.3218 0.799805 5.40063C0.799861 5.47947 0.815444 5.55752 0.845665 5.63034C0.875886 5.70315 0.920153 5.7693 0.975938 5.82501C1.03172 5.88072 1.09794 5.92489 1.17079 5.95501C1.24365 5.98513 1.32173 6.0006 1.40056 6.00054C1.4794 6.00049 1.55745 5.9849 1.63027 5.95468C1.70308 5.92446 1.76923 5.8802 1.82494 5.82441ZM20.1765 12.1748L17.0037 15.3476V1.19961C17.0037 1.04048 16.9405 0.887867 16.828 0.775345C16.7155 0.662824 16.5629 0.599609 16.4037 0.599609C16.2446 0.599609 16.092 0.662824 15.9795 0.775345C15.867 0.887867 15.8037 1.04048 15.8037 1.19961V15.3536L12.6237 12.1736C12.568 12.1179 12.5017 12.0737 12.4289 12.0436C12.356 12.0135 12.2779 11.998 12.1991 11.9981C12.0399 11.9982 11.8872 12.0615 11.7747 12.1742C11.6622 12.2869 11.5991 12.4396 11.5992 12.5988C11.5993 12.7581 11.6627 12.9107 11.7753 13.0232L15.9633 17.2112L15.9753 17.2232C16.0312 17.2793 16.0976 17.3237 16.1707 17.354C16.2438 17.3842 16.3222 17.3998 16.4013 17.3996H16.4037C16.4914 17.3995 16.578 17.3803 16.6574 17.3432C16.7368 17.3061 16.8071 17.252 16.8633 17.1848L21.0249 13.0232C21.0822 12.9679 21.128 12.9017 21.1594 12.8285C21.1908 12.7552 21.2074 12.6765 21.2081 12.5969C21.2088 12.5172 21.1936 12.4382 21.1634 12.3644C21.1333 12.2907 21.0887 12.2237 21.0324 12.1674C20.976 12.111 20.909 12.0665 20.8353 12.0363C20.7616 12.0061 20.6826 11.991 20.6029 11.9917C20.5232 11.9924 20.4445 12.0089 20.3713 12.0403C20.2981 12.0718 20.2319 12.1175 20.1765 12.1748Z" fill="#141414"/>
</svg>
