
<svg width="18" height="12" viewBox="0 0 18 12" fill="none" xmlns="http://www.w3.org/2000/svg">
<path d="M16.5 1.97917H1.49996C1.03996 1.97917 0.666626 1.60583 0.666626 1.14583C0.666626 0.685833 1.03996 0.3125 1.49996 0.3125H16.5C16.9608 0.3125 17.3333 0.685833 17.3333 1.14583C17.3333 1.60583 16.9608 1.97917 16.5 1.97917Z" fill="#141414"/>
<path d="M16.5 6.97917H1.49996C1.03996 6.97917 0.666626 6.60583 0.666626 6.14583C0.666626 5.68583 1.03996 5.3125 1.49996 5.3125H16.5C16.9608 5.3125 17.3333 5.68583 17.3333 6.14583C17.3333 6.60583 16.9608 6.97917 16.5 6.97917Z" fill="#141414"/>
<path d="M1.49996 11.9792H16.5C16.9608 11.9792 17.3333 11.6067 17.3333 11.1458C17.3333 10.685 16.9608 10.3125 16.5 10.3125H1.49996C1.03996 10.3125 0.666626 10.685 0.666626 11.1458C0.666626 11.6067 1.03996 11.9792 1.49996 11.9792Z" fill="#141414"/>
</svg>
